<svg id="svg" version="1.1" xmlns="http://www.w3.org/2000/svg" xmlns:xlink="http://www.w3.org/1999/xlink" width="400" height="400" viewBox="0, 0, 400,400"><g id="svgg"><path id="path0" d="M149.200 57.000 L 149.200 85.200 159.400 85.200 L 169.600 85.200 169.600 57.000 L 169.600 28.800 159.400 28.800 L 149.200 28.800 149.200 57.000 M45.209 75.122 C 37.995 82.245,36.672 84.423,39.163 85.074 C 39.583 85.184,40.016 85.617,40.126 86.037 C 40.235 86.457,40.612 86.800,40.963 86.800 C 41.313 86.800,41.600 87.058,41.600 87.373 C 41.600 87.688,41.960 88.060,42.400 88.200 C 42.840 88.340,43.200 88.691,43.200 88.980 C 43.200 89.270,43.560 89.601,44.000 89.716 C 44.440 89.831,44.800 90.212,44.800 90.563 C 44.800 90.913,45.058 91.200,45.373 91.200 C 45.688 91.200,46.060 91.560,46.200 92.000 C 46.340 92.440,46.712 92.800,47.027 92.800 C 47.342 92.800,47.600 93.087,47.600 93.437 C 47.600 93.788,47.943 94.165,48.363 94.274 C 48.783 94.384,49.216 94.817,49.326 95.237 C 49.435 95.657,49.791 96.000,50.116 96.000 C 50.441 96.000,50.801 96.360,50.916 96.800 C 51.031 97.240,51.391 97.600,51.716 97.600 C 52.041 97.600,52.401 97.960,52.516 98.400 C 52.631 98.840,52.991 99.200,53.316 99.200 C 53.641 99.200,54.001 99.560,54.116 100.000 C 54.231 100.440,54.591 100.800,54.916 100.800 C 55.241 100.800,55.601 101.160,55.716 101.600 C 55.831 102.040,56.191 102.400,56.516 102.400 C 56.841 102.400,57.201 102.760,57.316 103.200 C 57.431 103.640,57.812 104.000,58.163 104.000 C 58.513 104.000,58.800 104.258,58.800 104.573 C 58.800 104.888,59.160 105.260,59.600 105.400 C 60.040 105.540,60.400 105.912,60.400 106.227 C 60.400 106.542,60.658 106.800,60.973 106.800 C 61.288 106.800,61.660 107.160,61.800 107.600 C 61.940 108.040,62.312 108.400,62.627 108.400 C 62.942 108.400,63.200 108.687,63.200 109.037 C 63.200 109.388,63.560 109.769,64.000 109.884 C 64.440 109.999,64.800 110.359,64.800 110.684 C 64.800 111.009,65.160 111.369,65.600 111.484 C 66.040 111.599,66.400 111.959,66.400 112.284 C 66.400 112.609,66.760 112.969,67.200 113.084 C 67.640 113.199,68.000 113.559,68.000 113.884 C 68.000 114.209,68.360 114.569,68.800 114.684 C 69.240 114.799,69.600 115.159,69.600 115.484 C 69.600 115.809,69.960 116.169,70.400 116.284 C 70.840 116.399,71.200 116.759,71.200 117.084 C 71.200 117.409,71.560 117.769,72.000 117.884 C 72.440 117.999,72.800 118.359,72.800 118.684 C 72.800 119.009,73.160 119.369,73.600 119.484 C 74.040 119.599,74.400 119.930,74.400 120.220 C 74.400 120.509,74.760 120.860,75.200 121.000 C 75.640 121.140,76.000 121.491,76.000 121.780 C 76.000 122.989,79.972 123.193,80.284 122.000 C 80.399 121.560,80.759 121.200,81.084 121.200 C 81.409 121.200,81.769 120.840,81.884 120.400 C 82.000 119.957,82.430 119.600,82.847 119.600 C 83.333 119.600,83.600 119.317,83.600 118.800 C 83.600 118.267,83.867 118.000,84.400 118.000 C 84.933 118.000,85.200 117.733,85.200 117.200 C 85.200 116.667,85.467 116.400,86.000 116.400 C 86.517 116.400,86.800 116.133,86.800 115.647 C 86.800 115.230,87.157 114.800,87.600 114.684 C 88.040 114.569,88.400 114.209,88.400 113.884 C 88.400 113.559,88.760 113.199,89.200 113.084 C 89.640 112.969,90.000 112.609,90.000 112.284 C 90.000 111.959,90.360 111.599,90.800 111.484 C 91.240 111.369,91.600 110.988,91.600 110.637 C 91.600 110.287,91.870 110.000,92.200 110.000 C 92.619 110.000,92.800 109.578,92.800 108.600 C 92.800 107.622,92.619 107.200,92.200 107.200 C 91.867 107.200,91.600 106.844,91.600 106.400 C 91.600 105.867,91.333 105.600,90.800 105.600 C 90.267 105.600,90.000 105.333,90.000 104.800 C 90.000 104.267,89.733 104.000,89.200 104.000 C 88.667 104.000,88.400 103.733,88.400 103.200 C 88.400 102.667,88.133 102.400,87.600 102.400 C 87.067 102.400,86.800 102.133,86.800 101.600 C 86.800 101.067,86.533 100.800,86.000 100.800 C 85.467 100.800,85.200 100.533,85.200 100.000 C 85.200 99.467,84.933 99.200,84.400 99.200 C 83.867 99.200,83.600 98.933,83.600 98.400 C 83.600 97.867,83.333 97.600,82.800 97.600 C 82.267 97.600,82.000 97.333,82.000 96.800 C 82.000 96.267,81.733 96.000,81.200 96.000 C 80.667 96.000,80.400 95.733,80.400 95.200 C 80.400 94.667,80.133 94.400,79.600 94.400 C 79.067 94.400,78.800 94.133,78.800 93.600 C 78.800 93.067,78.533 92.800,78.000 92.800 C 77.556 92.800,77.200 92.533,77.200 92.200 C 77.200 91.867,76.844 91.600,76.400 91.600 C 75.867 91.600,75.600 91.333,75.600 90.800 C 75.600 90.356,75.333 90.000,75.000 90.000 C 74.667 90.000,74.400 89.644,74.400 89.200 C 74.400 88.667,74.133 88.400,73.600 88.400 C 73.067 88.400,72.800 88.133,72.800 87.600 C 72.800 87.067,72.533 86.800,72.000 86.800 C 71.467 86.800,71.200 86.533,71.200 86.000 C 71.200 85.467,70.933 85.200,70.400 85.200 C 69.867 85.200,69.600 84.933,69.600 84.400 C 69.600 83.867,69.333 83.600,68.800 83.600 C 68.267 83.600,68.000 83.333,68.000 82.800 C 68.000 82.267,67.733 82.000,67.200 82.000 C 66.667 82.000,66.400 81.733,66.400 81.200 C 66.400 80.667,66.133 80.400,65.600 80.400 C 65.067 80.400,64.800 80.133,64.800 79.600 C 64.800 79.067,64.533 78.800,64.000 78.800 C 63.467 78.800,63.200 78.533,63.200 78.000 C 63.200 77.483,62.933 77.200,62.447 77.200 C 62.030 77.200,61.600 76.843,61.484 76.400 C 61.369 75.960,60.988 75.600,60.637 75.600 C 60.287 75.600,60.000 75.330,60.000 75.000 C 60.000 74.667,59.644 74.400,59.200 74.400 C 58.667 74.400,58.400 74.133,58.400 73.600 C 58.400 73.156,58.133 72.800,57.800 72.800 C 57.467 72.800,57.200 72.444,57.200 72.000 C 57.200 71.467,56.933 71.200,56.400 71.200 C 55.867 71.200,55.600 70.933,55.600 70.400 C 55.600 69.824,55.333 69.600,54.649 69.600 C 54.126 69.600,53.474 69.330,53.200 69.000 C 52.400 68.036,52.333 68.088,45.209 75.122 M264.185 68.825 C 264.040 69.058,263.490 69.414,262.961 69.615 C 262.433 69.816,262.000 70.255,262.000 70.590 C 262.000 70.926,261.713 71.200,261.363 71.200 C 261.012 71.200,260.635 71.543,260.526 71.963 C 260.416 72.383,259.983 72.816,259.563 72.926 C 259.143 73.035,258.800 73.412,258.800 73.763 C 258.800 74.113,258.513 74.400,258.163 74.400 C 257.812 74.400,257.435 74.743,257.326 75.163 C 257.216 75.583,256.783 76.016,256.363 76.126 C 255.943 76.235,255.600 76.591,255.600 76.916 C 255.600 77.241,255.240 77.601,254.800 77.716 C 254.360 77.831,254.000 78.191,254.000 78.516 C 254.000 78.841,253.640 79.201,253.200 79.316 C 252.760 79.431,252.400 79.812,252.400 80.163 C 252.400 80.513,252.234 80.800,252.032 80.800 C 251.579 80.800,248.000 84.338,248.000 84.785 C 248.000 84.962,247.640 85.201,247.200 85.316 C 246.760 85.431,246.400 85.791,246.400 86.116 C 246.400 86.441,246.040 86.801,245.600 86.916 C 245.160 87.031,244.800 87.391,244.800 87.716 C 244.800 88.041,244.440 88.401,244.000 88.516 C 243.560 88.631,243.200 88.991,243.200 89.316 C 243.200 89.641,242.840 90.001,242.400 90.116 C 241.960 90.231,241.600 90.591,241.600 90.916 C 241.600 91.241,241.240 91.601,240.800 91.716 C 240.360 91.831,240.000 92.212,240.000 92.563 C 240.000 92.913,239.713 93.200,239.363 93.200 C 239.012 93.200,238.635 93.543,238.526 93.963 C 238.416 94.383,237.983 94.816,237.563 94.926 C 237.143 95.035,236.800 95.412,236.800 95.763 C 236.800 96.113,236.623 96.400,236.407 96.400 C 235.924 96.400,230.800 101.481,230.800 101.961 C 230.800 102.151,230.440 102.401,230.000 102.516 C 229.560 102.631,229.200 102.991,229.200 103.316 C 229.200 103.641,228.840 104.001,228.400 104.116 C 227.960 104.231,227.600 104.591,227.600 104.916 C 227.600 105.241,227.267 105.594,226.861 105.700 C 225.540 106.045,225.340 110.000,226.643 110.000 C 226.949 110.000,227.200 110.360,227.200 110.800 C 227.200 111.333,227.467 111.600,228.000 111.600 C 228.533 111.600,228.800 111.867,228.800 112.400 C 228.800 112.933,229.067 113.200,229.600 113.200 C 230.133 113.200,230.400 113.467,230.400 114.000 C 230.400 114.533,230.667 114.800,231.200 114.800 C 231.733 114.800,232.000 115.067,232.000 115.600 C 232.000 116.133,232.267 116.400,232.800 116.400 C 233.333 116.400,233.600 116.667,233.600 117.200 C 233.600 117.733,233.867 118.000,234.400 118.000 C 234.933 118.000,235.200 118.267,235.200 118.800 C 235.200 119.333,235.467 119.600,236.000 119.600 C 236.533 119.600,236.800 119.867,236.800 120.400 C 236.800 120.917,237.067 121.200,237.553 121.200 C 237.970 121.200,238.400 121.557,238.516 122.000 C 238.856 123.301,242.174 122.942,242.614 121.557 C 242.746 121.141,243.100 120.800,243.400 120.800 C 243.700 120.800,244.060 120.440,244.200 120.000 C 244.340 119.560,244.700 119.200,245.000 119.200 C 245.300 119.200,245.660 118.840,245.800 118.400 C 245.940 117.960,246.300 117.600,246.600 117.600 C 246.900 117.600,247.260 117.240,247.400 116.800 C 247.540 116.360,247.912 116.000,248.227 116.000 C 248.542 116.000,248.800 115.742,248.800 115.427 C 248.800 115.112,249.160 114.740,249.600 114.600 C 250.040 114.460,250.400 114.100,250.400 113.800 C 250.400 113.500,250.760 113.140,251.200 113.000 C 251.640 112.860,252.000 112.500,252.000 112.200 C 252.000 111.900,252.360 111.540,252.800 111.400 C 253.240 111.260,253.600 110.900,253.600 110.600 C 253.600 110.300,253.960 109.940,254.400 109.800 C 254.840 109.660,255.200 109.288,255.200 108.973 C 255.200 108.658,255.394 108.400,255.631 108.400 C 256.191 108.400,258.400 106.191,258.400 105.631 C 258.400 105.394,258.658 105.200,258.973 105.200 C 259.288 105.200,259.660 104.840,259.800 104.400 C 259.940 103.960,260.300 103.600,260.600 103.600 C 260.900 103.600,261.260 103.240,261.400 102.800 C 261.540 102.360,261.900 102.000,262.200 102.000 C 262.500 102.000,262.860 101.640,263.000 101.200 C 263.140 100.760,263.500 100.400,263.800 100.400 C 264.100 100.400,264.460 100.040,264.600 99.600 C 264.740 99.160,265.112 98.800,265.427 98.800 C 265.742 98.800,266.000 98.542,266.000 98.227 C 266.000 97.912,266.360 97.540,266.800 97.400 C 267.240 97.260,267.600 96.900,267.600 96.600 C 267.600 96.300,267.960 95.940,268.400 95.800 C 268.840 95.660,269.200 95.300,269.200 95.000 C 269.200 94.700,269.560 94.340,270.000 94.200 C 270.440 94.060,270.800 93.688,270.800 93.373 C 270.800 93.058,270.958 92.800,271.152 92.800 C 271.678 92.800,275.600 88.961,275.600 88.446 C 275.600 88.201,275.858 88.000,276.173 88.000 C 276.488 88.000,276.860 87.640,277.000 87.200 C 277.140 86.760,277.474 86.400,277.744 86.400 C 278.446 86.400,279.683 83.523,279.191 83.031 C 278.976 82.816,278.800 82.136,278.800 81.520 C 278.800 80.667,278.610 80.400,278.000 80.400 C 277.467 80.400,277.200 80.133,277.200 79.600 C 277.200 79.067,276.933 78.800,276.400 78.800 C 275.867 78.800,275.600 78.533,275.600 78.000 C 275.600 77.556,275.333 77.200,275.000 77.200 C 274.670 77.200,274.400 76.942,274.400 76.627 C 274.400 76.312,274.040 75.940,273.600 75.800 C 273.160 75.660,272.800 75.288,272.800 74.973 C 272.800 74.658,272.440 74.400,272.000 74.400 C 271.467 74.400,271.200 74.133,271.200 73.600 C 271.200 73.067,270.933 72.800,270.400 72.800 C 269.867 72.800,269.600 72.533,269.600 72.000 C 269.600 71.467,269.333 71.200,268.800 71.200 C 268.267 71.200,268.000 70.933,268.000 70.400 C 268.000 69.857,267.733 69.600,267.171 69.600 C 266.716 69.600,266.073 69.330,265.743 69.000 C 265.036 68.293,264.547 68.238,264.185 68.825 M150.000 101.600 C 149.293 102.307,148.667 102.400,144.600 102.400 C 140.267 102.400,140.000 102.446,140.000 103.200 C 140.000 103.930,139.733 104.000,136.963 104.000 C 134.262 104.000,133.902 104.089,133.716 104.800 C 133.539 105.477,133.170 105.600,131.316 105.600 C 129.462 105.600,129.093 105.723,128.916 106.400 C 128.739 107.075,128.370 107.200,126.553 107.200 C 124.667 107.200,124.400 107.299,124.400 108.000 C 124.400 108.667,124.133 108.800,122.800 108.800 C 121.711 108.800,121.200 108.975,121.200 109.349 C 121.200 109.680,120.565 109.999,119.600 110.154 C 118.565 110.319,118.000 110.620,118.000 111.005 C 118.000 111.368,117.622 111.600,117.033 111.600 C 115.652 111.600,114.800 111.998,114.800 112.643 C 114.800 112.949,114.461 113.200,114.047 113.200 C 113.630 113.200,113.200 113.557,113.084 114.000 C 112.933 114.578,112.538 114.800,111.664 114.800 C 110.805 114.800,110.380 115.032,110.200 115.600 C 110.060 116.040,109.688 116.400,109.373 116.400 C 109.058 116.400,108.440 116.760,108.000 117.200 C 107.560 117.640,106.840 118.000,106.400 118.000 C 105.867 118.000,105.600 118.267,105.600 118.800 C 105.600 119.333,105.333 119.600,104.800 119.600 C 104.267 119.600,104.000 119.867,104.000 120.400 C 104.000 120.933,103.733 121.200,103.200 121.200 C 102.667 121.200,102.400 121.467,102.400 122.000 C 102.400 122.533,102.133 122.800,101.600 122.800 C 101.160 122.800,100.440 123.160,100.000 123.600 C 99.560 124.040,98.951 124.400,98.647 124.400 C 98.342 124.400,97.999 124.760,97.884 125.200 C 97.769 125.640,97.400 126.000,97.064 126.000 C 96.729 126.000,96.340 126.360,96.200 126.800 C 96.060 127.240,95.688 127.600,95.373 127.600 C 95.058 127.600,94.800 127.842,94.800 128.138 C 94.800 128.434,94.350 129.199,93.800 129.838 C 93.251 130.477,92.801 131.225,92.800 131.500 C 92.800 131.775,92.530 132.000,92.200 132.000 C 91.867 132.000,91.600 132.356,91.600 132.800 C 91.600 133.333,91.333 133.600,90.800 133.600 C 90.267 133.600,90.000 133.867,90.000 134.400 C 90.000 134.933,89.733 135.200,89.200 135.200 C 88.700 135.200,88.400 135.467,88.400 135.911 C 88.400 136.302,88.040 136.930,87.600 137.307 C 87.160 137.684,86.800 138.444,86.800 138.996 C 86.800 139.733,86.587 140.000,86.000 140.000 C 85.556 140.000,85.200 140.267,85.200 140.600 C 85.200 140.930,84.840 141.560,84.400 142.000 C 83.960 142.440,83.600 143.148,83.600 143.573 C 83.600 143.998,83.240 144.460,82.800 144.600 C 82.212 144.787,82.000 145.205,82.000 146.180 C 82.000 147.170,81.797 147.560,81.200 147.716 C 80.594 147.875,80.400 148.262,80.400 149.316 C 80.400 150.370,80.206 150.757,79.600 150.916 C 78.987 151.076,78.800 151.462,78.800 152.563 C 78.800 153.525,78.616 154.000,78.243 154.000 C 77.504 154.000,77.200 154.886,77.200 157.033 C 77.200 158.271,77.034 158.800,76.647 158.800 C 76.072 158.800,75.615 159.970,75.605 161.467 C 75.602 161.943,75.386 162.405,75.124 162.492 C 74.843 162.586,74.577 163.753,74.476 165.337 C 74.342 167.446,74.144 168.109,73.553 168.425 C 72.887 168.782,72.800 169.328,72.800 173.167 C 72.800 177.170,72.738 177.523,72.000 177.716 C 70.747 178.044,70.747 200.356,72.000 200.684 C 72.739 200.877,72.800 201.230,72.800 205.284 C 72.800 209.338,72.861 209.691,73.600 209.884 C 74.302 210.068,74.400 210.430,74.400 212.827 C 74.400 214.695,74.571 215.661,74.939 215.880 C 75.236 216.056,75.590 216.910,75.727 217.777 C 75.863 218.644,76.250 219.508,76.587 219.697 C 76.994 219.925,77.200 220.637,77.200 221.816 C 77.200 223.160,77.395 223.715,78.000 224.093 C 78.534 224.426,78.800 225.026,78.800 225.896 C 78.800 226.933,78.964 227.200,79.600 227.200 C 80.267 227.200,80.400 227.467,80.400 228.800 C 80.400 230.133,80.533 230.400,81.200 230.400 C 81.867 230.400,82.000 230.667,82.000 232.000 C 82.000 233.333,82.133 233.600,82.800 233.600 C 83.314 233.600,83.600 233.867,83.600 234.346 C 83.600 235.135,85.546 235.600,88.850 235.600 C 90.638 235.600,91.369 234.398,91.844 230.677 C 91.990 229.535,92.337 228.148,92.616 227.595 C 92.894 227.042,93.253 225.692,93.411 224.595 C 93.570 223.498,93.935 222.150,94.223 221.600 C 95.388 219.372,96.800 216.015,96.800 215.474 C 96.800 215.157,97.070 214.674,97.400 214.400 C 97.730 214.126,98.000 213.651,98.000 213.344 C 98.000 212.193,101.250 206.552,102.300 205.880 C 102.575 205.704,102.812 205.344,102.827 205.080 C 102.841 204.816,103.470 203.790,104.225 202.800 C 104.979 201.810,105.756 200.639,105.951 200.198 C 106.615 198.696,116.906 187.992,118.481 187.167 C 118.986 186.902,120.480 185.847,121.800 184.823 C 124.036 183.089,125.604 181.969,127.152 181.000 C 127.503 180.780,128.222 180.285,128.749 179.900 C 129.277 179.515,130.022 179.200,130.405 179.200 C 130.788 179.200,131.317 178.942,131.579 178.626 C 131.841 178.310,132.570 177.938,133.200 177.800 C 133.830 177.662,134.559 177.290,134.821 176.974 C 135.083 176.658,135.612 176.400,135.995 176.400 C 136.378 176.400,137.150 176.040,137.709 175.600 C 138.269 175.160,139.058 174.794,139.463 174.786 C 139.868 174.779,140.920 174.425,141.800 174.000 C 142.680 173.575,143.760 173.221,144.200 173.214 C 144.640 173.206,146.080 172.851,147.400 172.423 C 152.703 170.706,154.642 170.349,160.888 169.939 C 168.638 169.430,167.478 169.433,175.421 169.905 C 178.952 170.115,182.211 170.485,182.663 170.727 C 183.115 170.968,184.718 171.363,186.227 171.604 C 187.735 171.845,189.196 172.230,189.473 172.460 C 189.973 172.875,192.643 173.122,192.919 172.779 C 200.828 162.953,209.178 155.550,217.100 151.342 C 217.815 150.963,218.400 150.505,218.400 150.326 C 218.400 150.147,218.646 150.000,218.946 150.000 C 219.246 150.000,219.921 149.665,220.446 149.255 C 220.971 148.845,221.850 148.374,222.400 148.208 C 222.950 148.041,223.670 147.690,224.000 147.427 C 224.330 147.164,225.950 146.427,227.600 145.789 C 232.248 143.991,233.584 142.946,233.594 141.100 C 233.599 140.265,233.408 140.000,232.800 140.000 C 232.267 140.000,232.000 139.733,232.000 139.200 C 232.000 138.667,231.733 138.400,231.200 138.400 C 230.548 138.400,230.400 138.133,230.400 136.963 C 230.400 135.862,230.213 135.476,229.600 135.316 C 229.157 135.200,228.800 134.770,228.800 134.353 C 228.800 133.867,228.517 133.600,228.000 133.600 C 227.467 133.600,227.200 133.333,227.200 132.800 C 227.200 132.267,226.933 132.000,226.400 132.000 C 225.867 132.000,225.600 131.733,225.600 131.200 C 225.600 130.760,225.351 130.400,225.047 130.400 C 224.742 130.400,224.399 130.040,224.284 129.600 C 224.169 129.160,223.832 128.800,223.535 128.800 C 223.238 128.800,222.761 128.270,222.474 127.623 C 222.188 126.976,221.424 126.212,220.777 125.926 C 220.130 125.639,219.600 125.179,219.600 124.902 C 219.600 124.626,219.240 124.400,218.800 124.400 C 218.267 124.400,218.000 124.133,218.000 123.600 C 218.000 123.067,217.733 122.800,217.200 122.800 C 216.667 122.800,216.400 122.533,216.400 122.000 C 216.400 121.467,216.133 121.200,215.600 121.200 C 215.067 121.200,214.800 120.933,214.800 120.400 C 214.800 119.883,214.533 119.600,214.047 119.600 C 213.630 119.600,213.200 119.243,213.084 118.800 C 212.924 118.187,212.538 118.000,211.437 118.000 C 210.267 118.000,210.000 117.852,210.000 117.200 C 210.000 116.667,209.733 116.400,209.200 116.400 C 208.667 116.400,208.400 116.133,208.400 115.600 C 208.400 114.958,208.133 114.800,207.047 114.800 C 206.030 114.800,205.641 114.601,205.484 114.000 C 205.359 113.521,204.938 113.200,204.437 113.200 C 203.971 113.200,203.600 112.942,203.600 112.618 C 203.600 112.272,203.044 111.932,202.228 111.779 C 201.473 111.637,200.762 111.279,200.649 110.983 C 200.535 110.687,199.815 110.327,199.049 110.183 C 198.282 110.039,197.559 109.669,197.440 109.361 C 197.316 109.037,196.669 108.800,195.909 108.800 C 195.026 108.800,194.428 108.537,194.093 108.000 C 193.702 107.374,193.160 107.200,191.597 107.200 C 189.867 107.200,189.600 107.093,189.600 106.400 C 189.600 105.699,189.333 105.600,187.447 105.600 C 185.630 105.600,185.261 105.475,185.084 104.800 C 184.898 104.090,184.538 104.000,181.884 104.000 C 179.230 104.000,178.870 103.910,178.684 103.200 C 178.491 102.460,178.138 102.400,174.001 102.400 C 170.132 102.400,169.389 102.292,168.509 101.600 C 167.566 100.858,166.886 100.800,159.146 100.800 C 151.333 100.800,150.749 100.851,150.000 101.600 M0.000 188.997 L 0.000 199.200 27.807 199.200 L 55.614 199.200 55.507 189.100 L 55.400 179.000 27.700 178.897 L 0.000 178.795 0.000 188.997 " stroke="none" fill="#fbdb54" fill-rule="evenodd"></path><path id="path1" d="M258.023 137.577 C 257.347 138.253,256.591 138.366,252.223 138.444 C 248.946 138.503,247.198 138.685,247.194 138.967 C 247.191 139.205,247.013 139.130,246.800 138.800 C 246.463 138.279,246.411 138.287,246.406 138.857 C 246.403 139.219,246.121 139.622,245.779 139.753 C 245.423 139.889,245.263 139.822,245.403 139.595 C 245.537 139.378,245.356 139.200,245.000 139.200 C 244.644 139.200,244.464 139.380,244.600 139.600 C 244.882 140.056,244.542 140.112,241.926 140.043 C 240.880 140.015,239.924 140.199,239.764 140.458 C 239.602 140.720,239.649 140.817,239.872 140.679 C 240.089 140.545,240.267 140.672,240.267 140.962 C 240.267 141.252,240.072 141.486,239.833 141.481 C 235.151 141.401,232.928 142.067,234.900 142.960 C 235.175 143.084,235.040 143.141,234.600 143.086 C 234.090 143.023,233.508 143.418,232.996 144.176 C 232.553 144.831,231.743 145.491,231.196 145.643 C 230.391 145.867,230.354 145.927,231.000 145.958 C 231.440 145.978,232.286 145.741,232.880 145.431 C 233.950 144.873,233.993 144.904,237.280 148.532 C 239.106 150.547,242.613 154.267,245.074 156.798 C 247.535 159.329,250.055 161.951,250.674 162.624 C 251.293 163.298,254.160 166.358,257.045 169.424 C 259.929 172.491,263.349 176.156,264.645 177.569 C 265.940 178.982,268.149 181.322,269.553 182.769 C 270.957 184.216,274.557 188.005,277.553 191.189 C 280.549 194.372,284.890 198.968,287.200 201.401 C 299.725 214.594,304.525 219.673,306.837 222.177 C 308.246 223.705,311.200 226.827,313.400 229.114 C 315.600 231.402,318.120 234.095,319.000 235.099 C 319.880 236.102,321.926 238.286,323.548 239.951 C 325.169 241.617,328.769 245.412,331.548 248.386 C 334.326 251.359,336.870 254.074,337.200 254.419 C 337.530 254.764,340.140 257.531,343.000 260.568 C 345.860 263.605,349.275 267.195,350.590 268.545 C 351.904 269.895,355.209 273.430,357.934 276.400 C 360.659 279.370,363.466 282.340,364.170 283.000 C 364.874 283.660,367.689 286.608,370.425 289.552 C 373.161 292.496,376.750 296.295,378.400 297.994 C 380.050 299.693,383.141 302.964,385.269 305.263 C 396.728 317.642,397.716 318.564,399.011 318.094 C 399.665 317.857,399.902 317.649,399.537 317.632 C 398.841 317.598,398.948 316.000,399.647 316.000 C 400.165 316.000,400.105 288.902,399.586 288.729 C 399.351 288.650,399.166 287.263,399.156 285.513 C 399.142 282.834,399.040 282.403,398.370 282.191 C 397.841 282.022,397.600 281.580,397.600 280.773 C 397.600 280.127,397.384 279.600,397.120 279.600 C 396.747 279.600,396.747 279.493,397.120 279.120 C 397.384 278.856,397.587 278.361,397.572 278.020 C 397.552 277.581,397.444 277.633,397.200 278.200 C 396.893 278.914,396.853 278.922,396.828 278.276 C 396.813 277.878,396.632 277.656,396.427 277.783 C 396.222 277.910,395.997 277.516,395.927 276.907 C 395.841 276.160,395.594 275.833,395.166 275.902 C 394.691 275.979,394.513 275.626,394.457 274.502 C 394.314 271.615,394.090 270.655,393.447 270.185 C 393.091 269.925,392.800 269.327,392.800 268.856 C 392.800 268.283,392.550 268.000,392.043 268.000 C 391.626 268.000,391.178 267.721,391.047 267.379 C 390.891 266.971,390.978 266.844,391.305 267.009 C 391.577 267.147,391.451 266.976,391.024 266.630 C 390.566 266.259,390.457 266.000,390.757 266.000 C 391.037 266.000,391.184 265.775,391.083 265.500 C 390.983 265.225,390.698 265.045,390.450 265.100 C 390.203 265.155,390.000 264.911,390.000 264.557 C 390.000 264.156,389.779 263.999,389.413 264.140 C 389.090 264.264,388.702 264.165,388.551 263.921 C 388.375 263.636,388.478 263.581,388.838 263.768 C 389.250 263.981,389.240 263.918,388.800 263.530 C 388.470 263.238,388.200 262.640,388.200 262.200 C 388.200 261.684,387.952 261.420,387.500 261.456 C 387.056 261.491,386.800 261.229,386.800 260.738 C 386.800 260.224,386.566 260.004,386.100 260.082 C 385.623 260.163,385.437 259.977,385.518 259.500 C 385.582 259.115,385.453 258.800,385.230 258.800 C 385.007 258.800,384.940 258.500,385.081 258.134 C 385.252 257.687,385.183 257.564,384.868 257.758 C 384.611 257.917,384.400 257.846,384.400 257.600 C 384.400 257.354,384.220 257.264,384.000 257.400 C 383.780 257.536,383.600 257.462,383.600 257.236 C 383.600 257.010,383.285 256.944,382.900 257.090 C 382.249 257.337,382.250 257.305,382.919 256.630 C 383.761 255.781,383.504 255.250,382.610 255.992 C 382.093 256.421,381.999 256.354,381.994 255.549 C 381.989 254.790,381.910 254.720,381.600 255.200 C 381.283 255.690,381.211 255.643,381.206 254.944 C 381.202 254.377,380.964 254.108,380.500 254.144 C 380.115 254.175,379.800 253.930,379.800 253.600 C 379.800 252.877,378.544 251.864,378.037 252.177 C 377.838 252.300,377.763 251.996,377.872 251.501 C 378.003 250.901,377.950 250.767,377.711 251.101 C 377.343 251.613,377.328 251.602,375.005 249.181 C 374.211 248.354,374.211 248.352,375.005 248.609 C 375.794 248.863,375.794 248.861,375.000 248.209 C 374.560 247.848,373.791 247.630,373.290 247.723 C 372.315 247.905,371.719 247.421,372.400 247.000 C 372.627 246.860,372.704 246.568,372.571 246.353 C 372.419 246.106,372.120 246.135,371.764 246.430 C 371.332 246.789,371.200 246.785,371.200 246.416 C 371.200 246.150,370.975 246.011,370.700 246.106 C 370.425 246.201,369.930 245.901,369.600 245.439 C 369.270 244.978,368.735 244.600,368.412 244.600 C 368.088 244.600,367.638 244.240,367.412 243.800 C 367.141 243.274,366.588 242.996,365.800 242.989 C 364.931 242.980,364.629 242.802,364.705 242.343 C 364.786 241.855,364.452 241.709,363.255 241.709 C 361.536 241.709,360.797 241.397,360.806 240.676 C 360.810 240.383,360.975 240.431,361.237 240.800 C 361.614 241.333,361.643 241.333,361.499 240.800 C 361.404 240.445,360.696 240.118,359.769 240.000 C 358.795 239.876,358.200 239.590,358.200 239.246 C 358.200 238.868,357.569 238.644,356.222 238.543 C 355.133 238.460,354.143 238.247,354.022 238.067 C 353.900 237.888,353.485 237.625,353.100 237.483 C 352.102 237.115,352.030 228.400,353.025 228.400 C 353.561 228.400,353.632 229.024,353.525 232.801 C 353.456 235.221,353.546 237.201,353.725 237.201 C 353.903 237.200,354.011 234.884,353.965 232.053 C 353.882 227.051,353.856 226.912,353.040 227.099 C 352.232 227.284,352.235 227.265,353.104 226.620 C 354.252 225.768,354.242 223.600,353.091 223.600 C 352.685 223.600,352.466 223.417,352.604 223.193 C 352.742 222.970,353.023 222.891,353.228 223.017 C 353.819 223.383,353.659 222.517,353.017 221.874 C 352.591 221.448,352.403 220.070,352.317 216.746 C 352.232 213.438,352.064 212.200,351.700 212.200 C 351.425 212.200,351.212 212.020,351.226 211.800 C 351.241 211.580,351.511 211.453,351.826 211.518 C 352.198 211.594,352.389 211.313,352.368 210.718 C 352.351 210.213,352.246 210.025,352.135 210.300 C 351.857 210.988,350.800 210.932,350.800 210.229 C 350.800 209.915,351.115 209.576,351.500 209.476 C 352.167 209.302,352.167 209.291,351.500 209.246 C 350.869 209.205,350.466 207.112,350.769 205.451 C 350.804 205.259,350.572 205.202,350.254 205.324 C 349.753 205.516,349.750 205.402,350.235 204.473 C 350.877 203.243,350.959 202.654,350.445 202.972 C 349.880 203.321,349.286 202.318,349.159 200.800 C 349.094 200.030,348.882 199.183,348.686 198.918 C 348.491 198.652,348.471 198.202,348.642 197.918 C 348.874 197.533,348.780 197.541,348.277 197.949 C 347.548 198.540,347.418 198.088,347.585 195.525 C 347.659 194.396,346.895 192.571,346.511 192.956 C 346.387 193.080,346.500 193.439,346.762 193.755 C 347.087 194.146,347.105 194.411,346.819 194.588 C 346.589 194.731,346.378 194.747,346.350 194.624 C 346.322 194.501,346.255 194.220,346.200 194.000 C 346.145 193.780,346.078 192.970,346.050 192.200 C 346.015 191.220,345.813 190.800,345.376 190.800 C 345.033 190.800,344.864 190.620,345.000 190.400 C 345.136 190.180,345.057 190.000,344.824 190.000 C 344.591 190.000,344.400 189.280,344.400 188.400 C 344.400 187.067,344.267 186.800,343.600 186.800 C 343.067 186.800,342.800 186.533,342.800 186.000 C 342.800 185.556,342.533 185.200,342.200 185.200 C 341.870 185.200,341.600 185.020,341.600 184.800 C 341.600 184.580,341.735 184.421,341.900 184.447 C 342.696 184.573,342.734 184.334,342.030 183.630 C 341.516 183.116,341.337 182.550,341.492 181.930 C 341.724 181.007,341.719 181.005,340.863 181.762 C 340.124 182.414,340.000 182.432,340.000 181.886 C 340.000 181.534,340.199 181.124,340.443 180.974 C 340.762 180.776,340.754 180.619,340.416 180.410 C 340.158 180.250,339.896 179.868,339.834 179.560 C 339.602 178.413,339.105 177.611,338.758 177.826 C 338.406 178.044,338.242 177.484,338.370 176.500 C 338.448 175.902,337.914 175.846,337.367 176.393 C 337.109 176.651,336.947 176.467,336.897 175.858 C 336.786 174.520,335.737 172.614,335.474 173.272 C 335.358 173.562,335.249 173.401,335.232 172.913 C 335.208 172.248,335.024 172.086,334.500 172.266 C 333.922 172.466,333.939 172.389,334.600 171.827 C 335.382 171.161,335.374 171.151,334.266 171.389 C 333.593 171.533,333.228 171.478,333.368 171.252 C 333.721 170.680,333.191 169.600,332.557 169.600 C 332.053 169.600,331.825 169.109,331.953 168.300 C 331.979 168.135,331.865 168.021,331.700 168.047 C 330.816 168.187,330.400 167.916,330.400 167.200 C 330.400 166.760,330.265 166.421,330.100 166.447 C 329.077 166.609,328.593 166.287,328.543 165.410 C 328.483 164.376,326.601 162.509,324.903 161.800 C 324.376 161.580,323.956 161.222,323.969 161.004 C 323.982 160.787,323.680 160.607,323.297 160.604 C 322.831 160.601,322.616 160.306,322.647 159.714 C 322.682 159.040,322.491 158.849,321.847 158.914 C 321.217 158.978,321.011 158.787,321.042 158.167 C 321.066 157.708,320.886 157.306,320.642 157.273 C 318.744 157.016,317.643 156.654,317.832 156.349 C 317.955 156.150,318.223 156.091,318.428 156.217 C 318.632 156.344,318.800 156.257,318.800 156.024 C 318.800 155.791,318.241 155.600,317.557 155.600 C 316.621 155.600,316.371 155.453,316.543 155.004 C 316.696 154.604,316.447 154.327,315.786 154.161 C 315.244 154.025,314.797 153.708,314.794 153.457 C 314.790 153.163,314.670 153.185,314.459 153.519 C 314.200 153.927,314.009 153.889,313.565 153.342 C 313.073 152.736,313.077 152.691,313.600 152.992 C 314.083 153.270,314.073 153.187,313.552 152.569 C 313.196 152.146,312.983 151.584,313.079 151.320 C 313.199 150.989,312.750 150.869,311.627 150.932 C 310.732 150.982,310.000 150.883,310.000 150.711 C 310.000 150.540,309.865 150.421,309.700 150.447 C 308.905 150.573,308.400 150.351,308.400 149.876 C 308.400 148.627,307.193 147.749,305.313 147.631 C 305.032 147.613,304.930 147.326,305.073 146.954 C 305.270 146.440,305.145 146.364,304.461 146.581 C 303.927 146.750,303.600 146.682,303.600 146.403 C 303.600 146.156,303.465 146.033,303.300 146.131 C 302.956 146.335,300.335 144.998,300.587 144.747 C 300.678 144.656,299.998 144.592,299.076 144.605 C 297.135 144.632,296.508 144.427,297.209 143.995 C 298.054 143.472,297.338 142.988,295.735 142.997 C 294.891 143.002,294.008 142.760,293.773 142.459 C 293.419 142.005,291.615 141.698,288.106 141.495 C 287.758 141.475,287.735 141.320,288.026 140.969 C 288.581 140.300,288.186 140.151,285.642 140.066 C 284.148 140.017,283.334 139.789,282.995 139.325 C 282.501 138.650,280.108 138.433,272.800 138.400 C 271.281 138.393,270.416 138.251,270.719 138.059 C 271.536 137.541,270.473 136.933,268.700 136.904 C 267.550 136.885,267.200 137.037,267.200 137.554 C 267.200 137.962,266.884 138.229,266.400 138.229 C 265.960 138.229,265.600 138.016,265.600 137.757 C 265.600 136.823,264.402 136.780,264.360 137.713 C 264.322 138.560,264.308 138.563,264.060 137.787 C 263.746 136.805,260.944 136.651,259.853 137.557 C 259.267 138.042,259.214 138.029,259.434 137.457 C 259.778 136.559,258.972 136.628,258.023 137.577 M228.400 146.596 C 227.850 146.884,226.419 147.587,225.219 148.160 C 223.931 148.774,223.377 149.200,223.865 149.200 C 224.320 149.200,225.150 148.840,225.709 148.400 C 226.269 147.960,227.083 147.600,227.519 147.600 C 227.955 147.600,228.736 147.246,229.256 146.813 C 230.324 145.923,229.895 145.814,228.400 146.596 M219.400 151.225 C 217.640 152.300,215.930 153.308,215.600 153.463 C 214.982 153.754,212.755 155.243,212.400 155.602 C 212.290 155.714,211.513 156.317,210.674 156.943 C 209.834 157.569,209.250 158.183,209.375 158.309 C 209.501 158.434,210.019 158.146,210.527 157.668 C 211.036 157.191,211.659 156.800,211.912 156.800 C 212.165 156.800,212.565 156.440,212.800 156.000 C 213.035 155.560,213.497 155.200,213.827 155.200 C 214.156 155.200,214.522 154.946,214.641 154.636 C 214.761 154.326,215.282 153.966,215.801 153.835 C 216.320 153.705,216.983 153.360,217.275 153.068 C 217.830 152.513,219.295 151.660,221.500 150.609 C 222.215 150.268,222.800 149.812,222.800 149.595 C 222.800 149.101,223.144 148.936,219.400 151.225 M203.423 163.021 C 200.880 165.343,198.795 167.368,198.789 167.521 C 198.783 167.675,197.881 168.772,196.783 169.960 C 195.685 171.149,194.868 172.202,194.967 172.300 C 195.282 172.616,196.000 171.974,196.000 171.376 C 196.000 171.059,196.270 170.800,196.600 170.800 C 196.930 170.800,197.200 170.597,197.200 170.350 C 197.200 169.797,206.840 160.224,207.748 159.875 C 208.319 159.656,208.698 158.800,208.223 158.800 C 208.126 158.800,205.966 160.700,203.423 163.021 M332.830 170.510 C 332.781 170.988,332.232 170.896,332.060 170.380 C 331.972 170.116,332.116 169.972,332.380 170.060 C 332.644 170.148,332.847 170.351,332.830 170.510 M159.143 170.991 C 159.038 171.096,157.523 171.454,155.776 171.787 L 152.600 172.393 155.800 172.214 C 157.560 172.115,159.720 171.765,160.600 171.435 L 162.200 170.835 160.767 170.818 C 159.978 170.808,159.247 170.886,159.143 170.991 M176.000 171.262 C 178.884 172.045,180.641 172.365,182.000 172.353 C 183.057 172.344,182.666 172.157,180.400 171.587 C 178.750 171.173,176.770 170.844,176.000 170.858 L 174.600 170.882 176.000 171.262 M149.804 172.794 C 149.670 173.010,148.984 173.354,148.280 173.558 L 147.000 173.928 148.137 173.964 C 148.762 173.984,149.731 173.640,150.291 173.200 C 151.009 172.635,151.122 172.400,150.678 172.400 C 150.331 172.400,149.938 172.577,149.804 172.794 M185.800 173.200 C 186.473 173.646,187.615 173.978,188.400 173.956 L 189.800 173.918 188.600 173.629 C 187.940 173.469,187.007 173.128,186.526 172.869 C 185.077 172.091,184.513 172.347,185.800 173.200 M194.000 173.122 C 194.000 173.372,193.415 173.746,192.700 173.952 C 191.831 174.203,191.673 174.340,192.224 174.364 C 193.211 174.407,194.722 173.389,194.299 172.966 C 194.135 172.801,194.000 172.872,194.000 173.122 M144.173 174.387 C 143.960 174.600,143.069 174.942,142.193 175.147 L 140.600 175.520 142.000 175.543 C 142.770 175.556,144.030 175.222,144.800 174.800 C 145.886 174.205,146.016 174.030,145.380 174.017 C 144.929 174.008,144.386 174.174,144.173 174.387 M139.200 176.200 C 138.926 176.530,138.424 176.800,138.084 176.800 C 137.745 176.800,137.573 176.906,137.703 177.037 C 138.082 177.416,139.505 176.824,139.750 176.185 C 140.038 175.435,139.830 175.440,139.200 176.200 M136.028 177.766 C 135.761 178.088,135.150 178.428,134.671 178.522 C 133.847 178.682,133.844 178.694,134.624 178.746 C 135.531 178.806,137.141 177.808,136.756 177.423 C 136.623 177.290,136.295 177.444,136.028 177.766 M132.400 179.401 C 131.850 179.692,130.950 180.134,130.400 180.384 C 127.798 181.568,125.658 183.200,126.708 183.200 C 126.932 183.200,127.212 182.947,127.330 182.638 C 127.449 182.328,128.083 181.957,128.740 181.813 C 129.396 181.669,130.024 181.315,130.135 181.026 C 130.245 180.737,130.963 180.383,131.729 180.240 C 132.496 180.096,133.224 179.713,133.349 179.389 C 133.473 179.065,133.536 178.816,133.487 178.837 C 133.439 178.857,132.950 179.111,132.400 179.401 M124.787 183.804 C 123.689 184.933,121.686 186.400,121.242 186.400 C 120.999 186.400,120.800 186.575,120.800 186.790 C 120.800 187.004,120.305 187.437,119.700 187.752 C 118.837 188.200,113.501 193.371,108.871 198.244 C 108.432 198.706,108.444 198.800,108.944 198.800 C 109.275 198.800,109.660 198.440,109.800 198.000 C 109.940 197.560,110.312 197.200,110.627 197.200 C 110.942 197.200,111.200 197.031,111.200 196.825 C 111.200 196.346,119.560 188.000,120.040 188.000 C 120.238 188.000,120.715 187.723,121.100 187.385 C 122.657 186.018,124.335 184.800,124.662 184.800 C 124.852 184.800,125.232 184.440,125.507 184.000 C 126.094 183.060,125.633 182.935,124.787 183.804 M107.577 199.952 C 107.033 200.518,104.560 204.137,103.400 206.065 C 103.180 206.430,102.432 207.538,101.739 208.527 C 101.045 209.516,100.347 210.738,100.186 211.244 C 100.026 211.749,99.648 212.409,99.347 212.710 C 99.046 213.011,98.800 213.681,98.800 214.200 C 98.800 214.719,98.530 215.413,98.200 215.743 C 97.433 216.510,97.434 216.839,98.202 216.544 C 98.533 216.417,98.915 215.623,99.049 214.781 C 99.184 213.939,99.520 213.163,99.797 213.057 C 100.073 212.951,100.420 212.219,100.568 211.432 C 100.715 210.644,101.014 210.000,101.231 210.000 C 101.448 210.000,101.740 209.685,101.881 209.300 C 102.021 208.915,102.556 208.091,103.068 207.469 C 103.581 206.847,104.000 206.102,104.000 205.812 C 104.000 205.523,104.270 205.182,104.600 205.055 C 104.930 204.929,105.200 204.577,105.200 204.275 C 105.200 203.972,105.560 203.398,106.000 203.000 C 106.440 202.602,106.800 202.091,106.800 201.864 C 106.800 201.637,107.191 201.036,107.668 200.527 C 108.146 200.019,108.461 199.536,108.368 199.453 C 108.276 199.371,107.920 199.595,107.577 199.952 M97.246 217.851 C 97.221 218.319,96.930 218.926,96.600 219.200 C 95.910 219.773,95.810 220.400,96.410 220.400 C 96.941 220.400,97.682 218.449,97.463 217.632 C 97.350 217.212,97.277 217.285,97.246 217.851 M95.359 222.075 C 95.117 222.804,94.782 223.715,94.616 224.100 C 94.440 224.509,94.486 224.800,94.726 224.800 C 95.221 224.800,96.113 222.264,95.930 221.378 C 95.854 221.013,95.615 221.305,95.359 222.075 M94.060 227.224 C 94.027 228.006,93.736 228.996,93.413 229.424 C 92.737 230.317,92.623 231.200,93.184 231.200 C 93.751 231.200,94.498 228.370,94.295 226.993 C 94.129 225.864,94.117 225.876,94.060 227.224 M92.467 233.638 C 92.374 235.637,91.440 236.327,88.594 236.502 L 86.200 236.649 88.656 236.724 C 91.900 236.824,92.930 236.077,92.697 233.792 L 92.534 232.200 92.467 233.638 M71.658 235.514 C 71.406 235.598,71.203 235.967,71.206 236.333 C 71.211 236.886,71.274 236.902,71.574 236.428 C 71.773 236.114,72.237 235.812,72.605 235.758 C 72.972 235.704,73.367 235.566,73.482 235.451 C 73.710 235.224,72.393 235.269,71.658 235.514 M54.000 242.400 C 53.710 242.942,53.705 243.200,53.986 243.200 C 54.214 243.200,54.400 242.943,54.400 242.629 C 54.400 242.315,54.715 241.976,55.100 241.876 C 55.746 241.707,55.747 241.689,55.114 241.646 C 54.737 241.621,54.235 241.960,54.000 242.400 M46.138 246.617 C 45.791 247.521,46.102 247.569,46.900 246.733 C 47.492 246.113,47.506 246.000,46.987 246.000 C 46.651 246.000,46.268 246.278,46.138 246.617 M40.620 251.633 C 40.722 251.797,40.579 252.023,40.302 252.134 C 40.026 252.246,40.205 252.351,40.700 252.368 C 41.199 252.386,41.600 252.162,41.600 251.867 C 41.600 251.573,41.338 251.333,41.018 251.333 C 40.697 251.333,40.518 251.468,40.620 251.633 M18.126 313.190 C 18.282 314.216,19.085 315.055,19.493 314.619 C 19.662 314.438,19.574 314.210,19.298 314.111 C 19.021 314.012,18.867 313.812,18.956 313.666 C 19.044 313.520,18.865 313.168,18.558 312.884 C 18.093 312.455,18.021 312.506,18.126 313.190 M23.102 330.666 C 23.379 330.777,23.522 331.003,23.420 331.167 C 23.318 331.332,23.497 331.467,23.818 331.467 C 24.138 331.467,24.400 331.227,24.400 330.933 C 24.400 330.638,23.999 330.414,23.500 330.432 C 23.005 330.449,22.826 330.554,23.102 330.666 M35.660 349.580 C 35.832 350.096,36.381 350.188,36.430 349.710 C 36.447 349.550,36.244 349.348,35.980 349.260 C 35.716 349.172,35.572 349.316,35.660 349.580 M67.371 368.800 C 67.371 369.240,67.609 369.600,67.900 369.600 C 68.304 369.600,68.328 369.412,68.000 368.800 C 67.765 368.360,67.527 368.000,67.472 368.000 C 67.417 368.000,67.371 368.360,67.371 368.800 M346.184 370.027 C 346.039 370.261,346.016 370.549,346.133 370.667 C 346.420 370.953,347.200 370.448,347.200 369.976 C 347.200 369.465,346.509 369.499,346.184 370.027 " stroke="none" fill="#5cb4ec" fill-rule="evenodd"></path><path id="path2" d="M259.440 137.440 C 259.229 137.989,259.288 138.025,259.757 137.635 C 260.214 137.256,260.373 137.287,260.526 137.787 C 260.684 138.301,260.708 138.293,260.659 137.741 C 260.578 136.817,259.757 136.614,259.440 137.440 M265.100 137.065 C 265.375 137.176,265.600 137.483,265.600 137.748 C 265.600 138.012,265.960 138.229,266.400 138.229 C 266.901 138.229,267.200 137.962,267.200 137.514 C 267.200 136.969,266.893 136.807,265.900 136.832 C 265.185 136.849,264.825 136.954,265.100 137.065 M244.800 138.807 C 244.292 139.129,244.312 139.189,244.924 139.194 C 245.322 139.197,245.537 139.378,245.403 139.595 C 245.263 139.822,245.423 139.889,245.779 139.753 C 246.121 139.622,246.397 139.219,246.394 138.857 C 246.389 138.334,246.318 138.311,246.042 138.745 C 245.824 139.089,245.642 139.131,245.548 138.858 C 245.451 138.573,245.195 138.556,244.800 138.807 M238.900 140.599 C 238.199 141.394,238.267 141.523,239.350 141.458 C 239.930 141.422,240.267 141.175,240.215 140.822 C 240.098 140.023,239.498 139.922,238.900 140.599 M233.901 142.081 C 233.610 142.838,233.894 143.202,234.767 143.194 C 235.170 143.190,235.240 143.081,234.960 142.894 C 234.718 142.732,234.436 142.339,234.333 142.020 C 234.178 141.538,234.105 141.548,233.901 142.081 M232.800 145.442 C 232.250 145.742,231.468 145.991,231.063 145.994 C 230.658 145.997,229.869 146.360,229.309 146.800 C 228.750 147.240,227.940 147.600,227.509 147.600 C 227.079 147.600,226.269 147.960,225.709 148.400 C 225.150 148.840,224.266 149.200,223.746 149.200 C 223.226 149.200,222.800 149.378,222.800 149.595 C 222.800 149.812,222.215 150.268,221.500 150.609 C 219.295 151.660,217.830 152.513,217.275 153.068 C 216.983 153.360,216.320 153.705,215.801 153.835 C 215.282 153.966,214.761 154.326,214.641 154.636 C 214.522 154.946,214.156 155.200,213.827 155.200 C 213.497 155.200,213.035 155.560,212.800 156.000 C 212.565 156.440,212.136 156.800,211.848 156.800 C 211.560 156.800,210.998 157.160,210.600 157.600 C 210.202 158.040,209.544 158.400,209.138 158.400 C 208.732 158.400,208.400 158.676,208.400 159.013 C 208.400 159.349,208.106 159.738,207.748 159.875 C 206.840 160.224,197.200 169.797,197.200 170.350 C 197.200 170.597,196.951 170.800,196.647 170.800 C 196.342 170.800,195.999 171.160,195.884 171.600 C 195.769 172.040,195.388 172.400,195.037 172.400 C 194.687 172.400,194.400 172.661,194.400 172.980 C 194.400 174.473,188.256 174.631,185.800 173.201 C 185.061 172.771,183.331 172.410,181.297 172.263 C 179.480 172.132,177.590 171.798,177.097 171.521 C 175.536 170.646,163.225 170.566,160.684 171.415 C 159.538 171.798,156.864 172.221,154.742 172.356 C 151.881 172.537,150.683 172.781,150.110 173.300 C 149.666 173.702,148.705 174.000,147.853 174.000 C 147.036 174.000,145.662 174.360,144.800 174.800 C 143.938 175.240,142.545 175.600,141.705 175.600 C 140.673 175.600,139.956 175.859,139.493 176.400 C 139.116 176.840,138.446 177.200,138.004 177.200 C 137.562 177.200,136.840 177.560,136.400 178.000 C 135.960 178.440,135.144 178.800,134.587 178.800 C 134.031 178.800,133.473 179.065,133.349 179.389 C 133.224 179.713,132.496 180.096,131.729 180.240 C 130.963 180.383,130.245 180.737,130.135 181.026 C 130.024 181.315,129.396 181.669,128.740 181.813 C 128.083 181.957,127.449 182.328,127.330 182.638 C 127.212 182.947,126.874 183.200,126.580 183.200 C 126.286 183.200,125.807 183.515,125.517 183.900 C 125.226 184.285,124.631 184.829,124.194 185.109 C 123.757 185.389,122.815 185.992,122.100 186.449 C 121.385 186.905,120.800 187.441,120.800 187.640 C 120.800 187.838,120.548 188.000,120.240 188.000 C 119.624 188.000,111.200 196.223,111.200 196.825 C 111.200 197.031,110.942 197.200,110.627 197.200 C 110.312 197.200,109.940 197.560,109.800 198.000 C 109.660 198.440,109.288 198.800,108.973 198.800 C 108.658 198.800,108.400 199.042,108.400 199.338 C 108.400 199.634,108.040 200.202,107.600 200.600 C 107.160 200.998,106.800 201.538,106.800 201.800 C 106.800 202.062,106.440 202.602,106.000 203.000 C 105.560 203.398,105.200 203.972,105.200 204.275 C 105.200 204.577,104.930 204.929,104.600 205.055 C 104.270 205.182,104.000 205.523,104.000 205.812 C 104.000 206.102,103.581 206.847,103.068 207.469 C 102.556 208.091,102.021 208.915,101.881 209.300 C 101.740 209.685,101.448 210.000,101.231 210.000 C 101.014 210.000,100.715 210.644,100.568 211.432 C 100.420 212.219,100.073 212.951,99.797 213.057 C 99.520 213.163,99.184 213.939,99.049 214.781 C 98.915 215.623,98.559 216.407,98.259 216.522 C 97.959 216.637,97.595 217.474,97.449 218.381 C 97.304 219.288,96.919 220.133,96.593 220.258 C 96.267 220.383,96.000 220.889,96.000 221.383 C 96.000 222.606,95.204 224.800,94.761 224.800 C 94.562 224.800,94.400 225.673,94.400 226.740 C 94.400 228.836,93.743 231.200,93.161 231.200 C 92.962 231.200,92.800 232.180,92.800 233.377 C 92.800 236.784,89.151 238.061,85.304 236.000 C 83.587 235.079,74.666 234.816,73.125 235.640 C 72.673 235.882,72.407 235.912,72.534 235.707 C 72.661 235.501,72.513 235.333,72.205 235.333 C 71.897 235.333,71.656 235.438,71.670 235.567 C 71.786 236.644,71.448 236.800,69.000 236.800 C 67.570 236.800,66.421 236.935,66.447 237.100 C 66.614 238.156,66.273 238.400,64.633 238.400 C 62.414 238.400,61.590 238.708,61.868 239.433 C 62.041 239.884,61.586 240.000,59.643 240.000 C 57.515 240.000,57.200 240.097,57.200 240.755 C 57.200 241.302,56.813 241.584,55.800 241.774 C 54.928 241.937,54.400 242.266,54.400 242.645 C 54.400 243.041,54.155 243.178,53.700 243.036 C 52.864 242.776,51.801 243.354,52.131 243.889 C 52.355 244.251,51.866 244.391,50.257 244.427 C 49.848 244.436,49.422 244.794,49.310 245.222 C 49.198 245.650,48.768 246.000,48.353 246.000 C 47.939 246.000,47.258 246.342,46.839 246.761 C 46.421 247.179,45.699 247.642,45.234 247.789 C 44.769 247.937,44.492 248.225,44.618 248.430 C 44.745 248.634,44.369 248.984,43.783 249.206 C 43.082 249.473,42.797 249.814,42.947 250.206 C 43.101 250.607,42.920 250.800,42.387 250.800 C 41.867 250.800,41.600 251.071,41.600 251.600 C 41.600 252.324,40.607 252.667,39.124 252.455 C 38.973 252.434,38.736 252.773,38.597 253.208 C 38.367 253.933,38.177 254.045,37.300 253.976 C 37.135 253.963,36.902 254.368,36.782 254.876 C 36.662 255.384,36.317 255.800,36.015 255.800 C 35.713 255.800,35.434 256.235,35.395 256.766 C 35.356 257.298,34.936 258.046,34.462 258.430 C 33.988 258.814,33.600 259.324,33.600 259.564 C 33.600 259.804,33.313 260.000,32.963 260.000 C 32.612 260.000,32.235 260.343,32.126 260.763 C 32.016 261.183,31.583 261.616,31.163 261.726 C 30.696 261.848,30.400 262.276,30.400 262.829 C 30.400 263.326,30.282 263.615,30.137 263.470 C 29.661 262.994,28.800 264.077,28.800 265.153 C 28.800 265.733,28.481 266.407,28.092 266.650 C 27.702 266.893,27.344 267.564,27.297 268.141 C 27.249 268.718,26.831 269.569,26.368 270.032 C 25.877 270.523,25.608 271.186,25.722 271.623 C 25.851 272.118,25.660 272.454,25.159 272.613 C 24.695 272.760,24.400 273.222,24.400 273.803 C 24.400 274.326,24.192 274.881,23.938 275.038 C 23.635 275.225,23.586 275.147,23.794 274.810 C 24.006 274.467,23.926 274.358,23.556 274.483 C 22.951 274.685,22.915 274.853,22.846 277.767 C 22.821 278.848,22.683 279.616,22.540 279.473 C 22.024 278.957,21.225 280.634,21.213 282.257 C 21.204 283.383,20.999 283.991,20.575 284.154 C 20.231 284.286,20.061 284.576,20.198 284.797 C 20.335 285.019,20.257 285.200,20.024 285.200 C 19.761 285.200,19.600 286.414,19.600 288.400 C 19.600 290.947,19.480 291.600,19.013 291.600 C 18.674 291.600,18.516 291.837,18.640 292.160 C 18.758 292.467,18.655 292.843,18.411 292.993 C 17.620 293.482,17.910 313.609,18.703 313.305 C 19.118 313.146,19.233 313.223,19.042 313.532 C 18.883 313.789,18.943 314.000,19.176 314.000 C 19.443 314.000,19.600 315.325,19.600 317.573 C 19.600 320.795,19.679 321.171,20.400 321.400 C 21.116 321.627,21.557 324.058,21.251 326.088 C 21.227 326.246,21.566 326.568,22.004 326.802 C 22.593 327.117,22.800 327.640,22.800 328.814 C 22.800 330.133,22.935 330.400,23.600 330.400 C 24.264 330.400,24.400 330.667,24.400 331.971 C 24.400 333.148,24.575 333.575,25.099 333.676 C 25.484 333.750,25.816 334.078,25.838 334.405 C 25.860 334.732,25.906 335.405,25.939 335.900 C 25.973 336.395,26.251 336.800,26.557 336.800 C 27.211 336.800,27.717 337.887,27.344 338.491 C 27.201 338.721,27.481 339.209,27.966 339.574 C 28.722 340.144,29.023 340.771,29.169 342.073 C 29.186 342.223,29.560 342.460,30.000 342.600 C 30.440 342.740,30.800 343.202,30.800 343.627 C 30.800 344.052,31.070 344.400,31.400 344.400 C 31.733 344.400,32.000 344.756,32.000 345.200 C 32.000 345.733,32.267 346.000,32.800 346.000 C 33.333 346.000,33.600 346.267,33.600 346.800 C 33.600 347.333,33.867 347.600,34.400 347.600 C 34.917 347.600,35.200 347.867,35.200 348.353 C 35.200 348.774,35.559 349.200,36.011 349.319 C 36.458 349.436,36.796 349.682,36.764 349.866 C 36.608 350.755,36.840 351.223,37.300 350.947 C 37.673 350.723,37.667 350.810,37.279 351.290 C 36.727 351.970,37.807 352.645,39.200 352.490 C 39.591 352.447,39.626 352.501,39.300 352.645 C 38.584 352.962,38.679 353.732,39.400 353.455 C 39.730 353.329,40.000 353.399,40.000 353.613 C 40.000 353.826,40.360 354.000,40.800 354.000 C 41.333 354.000,41.600 354.267,41.600 354.800 C 41.600 355.240,41.743 355.555,41.917 355.500 C 42.092 355.445,42.856 356.075,43.615 356.900 C 44.374 357.725,45.181 358.400,45.408 358.400 C 45.636 358.400,46.130 358.760,46.507 359.200 C 46.884 359.640,47.644 360.000,48.196 360.000 C 48.933 360.000,49.200 360.213,49.200 360.800 C 49.200 361.467,49.467 361.600,50.800 361.600 C 52.133 361.600,52.400 361.733,52.400 362.400 C 52.400 363.013,52.667 363.200,53.538 363.200 C 54.168 363.200,54.999 363.557,55.400 364.000 C 55.798 364.440,56.486 364.800,56.929 364.800 C 57.371 364.800,57.616 364.917,57.473 365.061 C 57.075 365.458,59.146 366.400,60.419 366.400 C 61.149 366.400,61.626 366.651,61.772 367.113 C 61.946 367.660,62.485 367.847,64.086 367.917 C 65.443 367.976,66.289 368.216,66.506 368.604 C 66.972 369.436,67.737 369.352,67.451 368.500 C 67.298 368.043,67.439 368.113,67.857 368.700 C 68.397 369.459,68.867 369.600,70.849 369.600 C 72.592 369.600,73.200 369.744,73.200 370.157 C 73.200 370.464,73.479 370.822,73.821 370.953 C 74.208 371.101,74.340 371.027,74.173 370.756 C 73.980 370.444,74.137 370.445,74.723 370.759 C 76.484 371.701,345.869 371.344,346.116 370.399 C 346.301 369.694,346.663 369.600,349.200 369.600 C 351.738 369.600,352.099 369.506,352.284 368.800 C 352.463 368.117,352.830 368.000,354.800 368.000 C 356.673 368.000,357.142 367.867,357.292 367.290 C 357.416 366.818,357.927 366.545,358.812 366.478 C 359.546 366.422,360.418 366.156,360.750 365.888 C 361.241 365.491,361.290 365.505,361.015 365.962 C 360.778 366.355,360.824 366.433,361.165 366.221 C 361.434 366.055,361.558 365.667,361.440 365.360 C 361.285 364.957,361.560 364.800,362.416 364.800 C 363.113 364.800,363.892 364.468,364.293 364.000 C 364.726 363.494,365.473 363.200,366.326 363.200 C 367.338 363.200,367.727 363.000,367.884 362.400 C 367.999 361.960,368.359 361.600,368.684 361.600 C 369.009 361.600,369.369 361.240,369.484 360.800 C 369.632 360.234,370.030 360.000,370.843 360.000 C 371.560 360.000,372.181 359.699,372.493 359.200 C 372.768 358.760,373.309 358.400,373.696 358.400 C 374.083 358.400,374.400 358.174,374.400 357.898 C 374.400 357.621,374.906 357.171,375.525 356.897 C 376.144 356.624,377.024 356.050,377.482 355.624 C 377.940 355.197,378.424 354.957,378.557 355.091 C 378.691 355.224,378.800 354.949,378.800 354.479 C 378.800 353.884,378.982 353.695,379.400 353.855 C 379.782 354.002,380.000 353.849,380.000 353.433 C 380.000 353.074,380.450 352.609,381.000 352.400 C 381.550 352.191,382.000 351.745,382.000 351.410 C 382.000 351.067,382.350 350.800,382.800 350.800 C 383.333 350.800,383.600 350.533,383.600 350.000 C 383.600 349.542,383.867 349.200,384.224 349.200 C 384.567 349.200,384.749 349.040,384.628 348.845 C 384.507 348.650,384.675 348.270,385.000 348.000 C 385.325 347.730,385.494 347.352,385.375 347.159 C 385.256 346.967,385.469 346.928,385.849 347.074 C 386.378 347.277,386.479 347.182,386.282 346.669 C 386.141 346.301,386.199 346.000,386.413 346.000 C 386.626 346.000,386.800 345.640,386.800 345.200 C 386.800 344.667,387.067 344.400,387.600 344.400 C 388.124 344.400,388.400 344.133,388.400 343.627 C 388.400 343.196,388.767 342.737,389.229 342.591 C 389.685 342.446,389.971 342.102,389.865 341.826 C 389.759 341.550,390.016 341.076,390.436 340.774 C 390.856 340.471,391.200 339.901,391.200 339.508 C 391.200 339.114,391.560 338.484,392.000 338.107 C 392.440 337.730,392.800 336.929,392.800 336.325 C 392.800 335.638,393.099 335.068,393.600 334.800 C 394.124 334.520,394.400 333.962,394.400 333.186 C 394.400 332.267,394.580 332.000,395.200 332.000 C 395.863 332.000,396.000 331.733,396.000 330.443 C 396.000 329.383,396.205 328.807,396.642 328.639 C 397.019 328.494,397.186 328.140,397.046 327.776 C 396.911 327.423,396.978 327.263,397.205 327.403 C 397.448 327.553,397.602 326.751,397.606 325.324 C 397.610 323.734,397.730 323.186,397.984 323.588 C 398.607 324.572,398.969 323.694,399.132 320.805 C 399.277 318.238,399.235 318.066,398.510 318.255 C 397.771 318.449,392.026 312.759,383.646 303.534 C 382.411 302.174,380.050 299.676,378.400 297.983 C 376.750 296.290,373.161 292.496,370.425 289.552 C 367.689 286.608,364.874 283.660,364.170 283.000 C 363.466 282.340,360.659 279.370,357.934 276.400 C 355.209 273.430,351.904 269.895,350.590 268.545 C 349.275 267.195,345.860 263.605,343.000 260.568 C 340.140 257.531,337.530 254.764,337.200 254.419 C 336.870 254.074,334.326 251.359,331.548 248.386 C 328.769 245.412,325.169 241.617,323.548 239.951 C 321.926 238.286,319.880 236.102,319.000 235.099 C 318.120 234.095,315.600 231.402,313.400 229.114 C 311.200 226.827,308.246 223.705,306.837 222.177 C 304.525 219.673,299.725 214.594,287.200 201.401 C 284.890 198.968,280.549 194.372,277.553 191.189 C 274.557 188.005,270.957 184.216,269.553 182.769 C 268.149 181.322,265.940 178.982,264.645 177.569 C 262.626 175.368,259.276 171.791,250.365 162.324 C 249.394 161.293,246.233 157.963,243.340 154.924 C 240.448 151.886,237.118 148.387,235.940 147.148 C 233.895 144.996,233.756 144.920,232.800 145.442 M308.400 149.757 C 308.400 150.361,309.372 150.895,309.761 150.506 C 310.159 150.108,310.029 149.535,309.600 149.800 C 309.380 149.936,309.200 149.857,309.200 149.624 C 309.200 149.391,309.020 149.200,308.800 149.200 C 308.580 149.200,308.400 149.451,308.400 149.757 M313.428 152.755 C 313.307 152.950,313.456 153.314,313.758 153.565 C 314.249 153.973,314.800 153.446,314.800 152.567 C 314.800 152.246,313.645 152.403,313.428 152.755 M316.278 154.257 C 316.540 154.364,316.656 154.710,316.535 155.026 C 316.380 155.429,316.595 155.591,317.257 155.568 C 317.776 155.551,317.975 155.446,317.700 155.335 C 317.425 155.224,317.200 154.878,317.200 154.567 C 317.200 154.255,316.885 154.014,316.500 154.032 C 316.115 154.049,316.015 154.151,316.278 154.257 M318.800 156.000 C 318.800 156.246,318.632 156.344,318.428 156.217 C 318.223 156.091,317.942 156.170,317.804 156.393 C 317.659 156.628,317.985 156.800,318.576 156.800 C 319.606 156.800,319.943 156.259,319.200 155.800 C 318.980 155.664,318.800 155.754,318.800 156.000 M322.584 160.373 C 322.711 160.580,323.164 160.723,323.591 160.691 C 324.530 160.620,324.285 160.293,323.165 160.122 C 322.718 160.053,322.456 160.167,322.584 160.373 M333.200 169.921 C 333.200 170.171,332.930 170.271,332.600 170.145 C 331.963 169.900,331.755 170.601,332.355 170.972 C 332.790 171.241,333.815 170.081,333.457 169.724 C 333.316 169.582,333.200 169.671,333.200 169.921 M340.138 181.417 C 339.766 182.388,340.202 182.482,340.998 181.602 C 341.660 180.870,341.665 180.800,341.049 180.800 C 340.678 180.800,340.268 181.078,340.138 181.417 M346.175 193.600 C 346.266 194.150,346.354 194.667,346.370 194.749 C 346.439 195.094,347.599 193.863,347.594 193.451 C 347.590 193.188,347.443 193.229,347.241 193.548 C 346.960 193.991,346.809 193.952,346.452 193.348 C 346.059 192.682,346.028 192.710,346.175 193.600 M347.600 198.048 C 347.600 198.268,347.811 198.317,348.068 198.158 C 348.378 197.966,348.454 198.083,348.292 198.505 C 348.157 198.855,348.269 199.326,348.540 199.550 C 348.908 199.856,349.054 199.682,349.116 198.865 C 349.180 198.026,349.013 197.756,348.400 197.710 C 347.960 197.677,347.600 197.829,347.600 198.048 M350.153 204.570 C 349.792 205.349,349.812 205.494,350.253 205.324 C 350.554 205.209,350.800 204.774,350.800 204.357 C 350.800 203.370,350.693 203.405,350.153 204.570 M351.400 209.200 C 352.084 209.494,352.099 209.548,351.500 209.572 C 350.677 209.605,350.538 210.800,351.357 210.800 C 351.881 210.800,352.400 209.988,352.400 209.167 C 352.400 208.965,351.995 208.813,351.500 208.828 C 350.641 208.855,350.637 208.872,351.400 209.200 M350.989 211.617 C 350.859 211.828,350.808 212.014,350.876 212.031 C 351.874 212.278,352.400 212.270,352.400 212.007 C 352.400 211.506,351.254 211.189,350.989 211.617 M353.024 226.613 C 352.383 227.097,352.360 227.200,352.890 227.200 C 353.244 227.200,353.612 227.425,353.709 227.700 C 353.805 227.975,353.888 227.705,353.892 227.100 C 353.896 226.495,353.878 226.006,353.850 226.013 C 353.822 226.020,353.451 226.290,353.024 226.613 M352.487 232.895 C 352.591 237.048,352.661 237.398,353.400 237.488 C 353.840 237.542,354.020 237.499,353.800 237.394 C 353.558 237.278,353.449 235.467,353.525 232.801 C 353.633 228.987,353.565 228.400,353.012 228.400 C 352.459 228.400,352.389 229.000,352.487 232.895 M356.450 239.294 C 356.784 239.917,357.600 239.959,357.600 239.353 C 357.600 239.243,357.420 239.264,357.200 239.400 C 356.980 239.536,356.800 239.472,356.800 239.257 C 356.800 239.042,357.025 238.780,357.300 238.674 C 357.575 238.568,357.409 238.500,356.930 238.524 C 356.217 238.558,356.131 238.697,356.450 239.294 M369.213 244.700 C 369.238 245.291,370.285 246.382,370.561 246.105 C 370.717 245.950,370.991 246.062,371.172 246.354 C 371.394 246.715,371.586 246.747,371.766 246.454 C 371.920 246.206,371.602 245.915,371.016 245.768 C 370.457 245.628,370.000 245.263,370.000 244.957 C 370.000 244.650,369.820 244.400,369.600 244.400 C 369.380 244.400,369.206 244.535,369.213 244.700 M375.000 249.153 C 377.571 251.907,377.913 252.076,377.220 250.253 C 376.999 249.670,376.679 249.234,376.509 249.282 C 376.339 249.330,375.750 249.128,375.200 248.833 L 374.200 248.296 375.000 249.153 M377.891 251.575 C 377.751 252.111,377.857 252.276,378.245 252.127 C 378.875 251.886,378.972 251.354,378.445 251.028 C 378.250 250.908,378.001 251.154,377.891 251.575 M379.400 252.706 C 379.620 252.868,379.800 253.255,379.800 253.567 C 379.800 253.878,380.001 254.200,380.248 254.283 C 380.530 254.377,380.624 254.058,380.501 253.416 C 380.387 252.818,380.038 252.403,379.653 252.406 C 379.278 252.410,379.170 252.537,379.400 252.706 M385.501 259.281 C 385.366 259.633,385.350 260.017,385.467 260.133 C 385.775 260.441,386.800 259.980,386.800 259.534 C 386.800 259.324,386.635 259.255,386.434 259.379 C 386.233 259.503,385.996 259.388,385.908 259.123 C 385.803 258.808,385.662 258.863,385.501 259.281 M386.800 260.914 C 386.800 261.197,387.150 261.429,387.578 261.429 C 388.166 261.429,388.252 261.303,387.929 260.914 C 387.694 260.631,387.344 260.400,387.151 260.400 C 386.958 260.400,386.800 260.631,386.800 260.914 M388.678 263.456 C 388.252 263.882,388.785 264.380,389.411 264.141 C 389.732 264.017,389.896 263.755,389.774 263.558 C 389.515 263.139,389.039 263.094,388.678 263.456 M394.506 275.252 C 394.472 275.707,394.720 275.926,395.227 275.888 C 395.652 275.856,396.000 275.669,396.000 275.472 C 396.000 275.275,395.685 275.224,395.300 275.358 C 394.687 275.572,394.692 275.530,395.347 275.022 C 396.075 274.458,396.074 274.444,395.326 274.500 C 394.904 274.532,394.535 274.871,394.506 275.252 M396.000 277.624 C 396.000 277.857,396.180 277.936,396.400 277.800 C 396.748 277.585,396.990 278.396,396.847 279.300 C 396.821 279.465,396.980 279.600,397.200 279.600 C 397.695 279.600,397.695 279.503,397.210 278.226 C 396.825 277.213,396.000 276.802,396.000 277.624 M399.084 316.800 C 398.948 317.320,399.072 317.600,399.437 317.600 C 399.747 317.600,400.000 317.240,400.000 316.800 C 400.000 316.360,399.841 316.000,399.647 316.000 C 399.452 316.000,399.199 316.360,399.084 316.800 " stroke="none" fill="#54c4fc" fill-rule="evenodd"></path><path id="path3" d="M232.650 143.945 C 232.279 144.355,230.766 145.194,229.288 145.809 C 225.742 147.284,222.176 149.005,220.200 150.195 C 219.320 150.725,218.240 151.327,217.800 151.532 C 212.489 154.007,200.683 164.115,195.185 170.895 C 192.684 173.981,192.086 174.146,188.102 172.853 C 185.155 171.897,181.885 171.181,179.600 170.992 C 178.028 170.862,178.155 170.938,180.600 171.589 C 182.140 171.999,183.904 172.349,184.520 172.367 C 185.136 172.385,186.176 172.677,186.831 173.016 C 187.486 173.355,189.152 173.738,190.532 173.867 C 193.346 174.129,192.959 174.363,196.365 170.350 C 199.452 166.714,205.692 160.753,209.200 158.089 C 210.850 156.836,212.290 155.715,212.400 155.596 C 212.887 155.073,215.022 153.762,219.881 151.000 C 224.826 148.190,230.294 145.600,231.282 145.600 C 231.849 145.600,232.750 144.777,233.363 143.700 C 233.779 142.968,233.424 143.090,232.650 143.945 M163.800 170.424 C 161.381 170.575,162.956 170.663,168.600 170.693 C 173.220 170.717,176.820 170.676,176.600 170.601 C 175.788 170.324,167.287 170.207,163.800 170.424 M151.800 171.853 C 149.820 172.391,147.300 173.071,146.200 173.365 C 141.909 174.512,139.642 175.372,135.577 177.395 C 133.254 178.551,130.940 179.628,130.436 179.789 C 125.208 181.448,107.444 197.541,104.800 203.014 C 104.690 203.242,103.700 204.736,102.600 206.335 C 99.946 210.194,98.999 212.043,96.220 218.800 C 95.631 220.230,94.912 221.940,94.621 222.600 C 94.330 223.260,93.964 224.700,93.807 225.800 C 93.649 226.900,93.367 228.088,93.178 228.441 C 92.990 228.793,92.563 230.388,92.230 231.985 C 91.417 235.883,91.203 236.091,88.162 235.931 C 86.794 235.859,85.758 235.935,85.861 236.100 C 85.963 236.265,87.179 236.400,88.562 236.400 C 91.666 236.400,92.197 235.900,92.591 232.600 C 92.748 231.280,93.062 229.975,93.288 229.700 C 93.514 229.424,93.930 227.984,94.212 226.500 C 94.798 223.420,95.893 220.082,96.607 219.200 C 96.874 218.870,97.216 218.083,97.366 217.452 C 97.516 216.820,97.901 216.042,98.220 215.723 C 98.539 215.404,98.800 214.719,98.800 214.200 C 98.800 213.681,99.046 213.011,99.347 212.710 C 99.648 212.409,100.026 211.749,100.186 211.244 C 100.347 210.738,101.045 209.516,101.739 208.527 C 102.432 207.538,103.180 206.430,103.400 206.065 C 104.384 204.429,107.003 200.544,107.489 200.000 C 107.783 199.670,108.390 198.950,108.837 198.400 C 110.701 196.105,118.684 188.280,119.700 187.752 C 120.305 187.437,120.800 187.004,120.800 186.790 C 120.800 186.575,120.999 186.400,121.242 186.400 C 121.661 186.400,123.449 185.105,124.834 183.798 C 125.182 183.469,125.618 183.200,125.802 183.200 C 125.986 183.200,126.467 182.901,126.871 182.536 C 127.691 181.794,128.900 181.056,130.400 180.383 C 130.950 180.136,132.066 179.589,132.879 179.167 C 133.693 178.745,134.616 178.400,134.930 178.400 C 135.245 178.400,135.711 178.148,135.967 177.839 C 136.223 177.531,136.920 177.157,137.516 177.008 C 138.112 176.859,138.873 176.492,139.206 176.191 C 139.540 175.891,140.703 175.446,141.790 175.202 C 142.878 174.959,143.955 174.613,144.184 174.435 C 144.413 174.256,145.470 173.997,146.533 173.858 C 147.596 173.720,148.946 173.345,149.533 173.026 C 150.120 172.707,152.040 172.252,153.800 172.015 C 155.560 171.779,157.540 171.424,158.200 171.227 C 161.156 170.345,155.215 170.926,151.800 171.853 " stroke="none" fill="#9cccbc" fill-rule="evenodd"></path><path id="path4" d="M233.142 142.675 C 232.849 143.347,230.499 144.667,227.600 145.789 C 225.950 146.427,224.330 147.164,224.000 147.427 C 223.670 147.690,222.950 148.041,222.400 148.208 C 221.850 148.374,220.971 148.845,220.446 149.255 C 219.921 149.665,219.246 150.000,218.946 150.000 C 218.646 150.000,218.400 150.147,218.400 150.326 C 218.400 150.505,217.815 150.963,217.100 151.342 C 209.178 155.550,200.828 162.953,192.919 172.779 C 192.643 173.122,189.973 172.875,189.473 172.460 C 189.196 172.230,187.735 171.845,186.227 171.604 C 184.718 171.363,183.115 170.968,182.663 170.727 C 182.211 170.485,178.952 170.115,175.421 169.905 C 167.478 169.433,168.638 169.430,160.888 169.939 C 154.642 170.349,152.703 170.706,147.400 172.423 C 146.080 172.851,144.640 173.206,144.200 173.214 C 143.760 173.221,142.680 173.575,141.800 174.000 C 140.920 174.425,139.868 174.779,139.463 174.786 C 139.058 174.794,138.269 175.160,137.709 175.600 C 137.150 176.040,136.378 176.400,135.995 176.400 C 135.612 176.400,135.083 176.658,134.821 176.974 C 134.559 177.290,133.830 177.662,133.200 177.800 C 132.570 177.938,131.841 178.310,131.579 178.626 C 131.317 178.942,130.788 179.200,130.405 179.200 C 130.022 179.200,129.277 179.515,128.749 179.900 C 128.222 180.285,127.503 180.780,127.152 181.000 C 125.604 181.969,124.036 183.089,121.800 184.823 C 120.480 185.847,118.986 186.902,118.481 187.167 C 116.906 187.992,106.615 198.696,105.951 200.198 C 105.756 200.639,104.979 201.810,104.225 202.800 C 103.470 203.790,102.841 204.816,102.827 205.080 C 102.812 205.344,102.575 205.704,102.300 205.880 C 101.250 206.552,98.000 212.193,98.000 213.344 C 98.000 213.651,97.730 214.126,97.400 214.400 C 97.070 214.674,96.800 215.157,96.800 215.474 C 96.800 216.015,95.388 219.372,94.223 221.600 C 93.935 222.150,93.570 223.498,93.411 224.595 C 93.253 225.692,92.894 227.042,92.616 227.595 C 92.337 228.148,91.990 229.535,91.844 230.677 C 91.698 231.819,91.303 233.414,90.965 234.222 L 90.352 235.690 87.784 235.527 C 86.372 235.437,85.438 235.504,85.708 235.675 C 86.569 236.222,90.662 236.048,91.163 235.444 C 91.417 235.138,91.897 233.582,92.230 231.985 C 92.563 230.388,92.990 228.793,93.178 228.441 C 93.367 228.088,93.649 226.900,93.807 225.800 C 93.964 224.700,94.330 223.260,94.621 222.600 C 94.912 221.940,95.631 220.230,96.220 218.800 C 98.999 212.043,99.946 210.194,102.600 206.335 C 103.700 204.736,104.690 203.242,104.800 203.014 C 107.444 197.541,125.208 181.448,130.436 179.789 C 130.940 179.628,133.254 178.551,135.577 177.395 C 137.900 176.238,141.150 174.892,142.800 174.403 C 144.450 173.914,146.880 173.191,148.200 172.796 C 152.979 171.367,156.310 170.816,162.200 170.479 C 169.213 170.079,179.825 170.573,182.308 171.416 C 183.254 171.737,184.433 172.000,184.928 172.000 C 185.423 172.000,186.852 172.360,188.104 172.800 C 192.010 174.173,192.672 173.995,195.185 170.895 C 200.683 164.115,212.489 154.007,217.800 151.532 C 218.240 151.327,219.320 150.725,220.200 150.195 C 222.175 149.006,225.741 147.284,229.278 145.813 C 231.805 144.761,234.009 143.076,233.510 142.577 C 233.385 142.452,233.220 142.496,233.142 142.675 " stroke="none" fill="#acd4ac" fill-rule="evenodd"></path></g></svg>